# xmcd CD database file
#
# Track frame offsets:
#	150
#	9281
#	11262
#	22534
#	27419
#	35152
#	45771
#	64874
#	78649
#	99731
#	107708
#	120540
#	130437
#	152975
#	163374
#	185339
#	213145
#	222460
#	235821
#	257558
#	262908
#	273185
#	289500
#	305774
#	312430
#	319114
#	324199
#	331689
#
# Disc length: 4543 seconds
#
# Revision: 0
# Processed by: cddbd v1.5.1PL0 Copyright (c) Steve Scherf et al.
# Submitted via: CDex 1.51
#
DISCID=7911bd1c
DTITLE=Sonoton Authentic Series - SAS 066 - Authentic India 4
DYEAR=1999
DGENRE=Contentum
TTITLE0=Divinity
TTITLE1=Kettimelam
TTITLE2=Morning dawn
TTITLE3=Mood change
TTITLE4=Golden moment
TTITLE5=Romantic time
TTITLE6=Joyful moods
TTITLE7=Pleasant memories
TTITLE8=Thillana Thillana
TTITLE9=More expecttations
TTITLE10=Rosy times
TTITLE11=Folk rhythms
TTITLE12=Leaving mother
TTITLE13=Wounded
TTITLE14=Rejoice
TTITLE15=Longingly
TTITLE16=Unhealed wounds
TTITLE17=Child and mother
TTITLE18=Child and mother 2
TTITLE19=Shooting touch
TTITLE20=Difficult moments
TTITLE21=Singing heart
TTITLE22=Singing heart 2
TTITLE23=Chase
TTITLE24=Hard fight
TTITLE25=Indian fight
TTITLE26=Funny fight
TTITLE27=Indian action
EXTD=YEAR: 1999
EXTT0=
EXTT1=
EXTT2=
EXTT3=
EXTT4=
EXTT5=
EXTT6=
EXTT7=
EXTT8=
EXTT9=
EXTT10=
EXTT11=
EXTT12=
EXTT13=
EXTT14=
EXTT15=
EXTT16=
EXTT17=
EXTT18=
EXTT19=
EXTT20=
EXTT21=
EXTT22=
EXTT23=
EXTT24=
EXTT25=
EXTT26=
EXTT27=
PLAYORDER=
